<svg width="100" height="104" viewBox="0 0 100 104" fill="none" xmlns="http://www.w3.org/2000/svg">
<g id="play-button" clip-path="url(#clip0_1_124)">
<path id="Vector" d="M50 0.450195C22.3861 0.450195 0 23.4602 0 51.8446C0 80.229 22.3861 103.239 50 103.239C77.6139 103.239 100 80.229 100 51.8446C100 23.4602 77.6139 0.450195 50 0.450195ZM67.2813 54.5689L42.2812 70.6297C41.7754 70.9543 41.2002 71.1175 40.625 71.1175C40.1039 71.1175 39.582 70.9842 39.1098 70.7144C38.1164 70.1483 37.5 69.0738 37.5 67.9054V35.7839C37.5 34.6154 38.1164 33.541 39.1098 32.9748C40.1031 32.4055 41.3178 32.44 42.2812 33.0596L67.2813 49.1203C68.1945 49.7085 68.75 50.7374 68.75 51.8446C68.75 52.9518 68.1945 53.9809 67.2813 54.5689Z" fill="white"/>
</g>
<defs>
<clipPath id="clip0_1_124">
<rect width="100" height="102.789" fill="white" transform="translate(0 0.450195)"/>
</clipPath>
</defs>
</svg>
