<svg width="43" height="30" viewBox="0 0 43 30" fill="none" xmlns="http://www.w3.org/2000/svg">
<path d="M42.7719 27.0933C42.7199 26.9561 42.6713 26.8423 42.6263 26.7511C41.8802 25.108 40.4545 23.0913 38.3501 20.7003L38.3056 20.6456L38.2834 20.6187L38.2608 20.5912H38.2383C37.2832 19.4778 36.6783 18.7292 36.4251 18.346C35.9616 17.6159 35.8578 16.8768 36.1111 16.128C36.29 15.5623 36.9622 14.3675 38.1261 12.5421C38.7382 11.5747 39.2231 10.7993 39.5811 10.2152C42.1634 6.01717 43.283 3.33459 42.9395 2.16638L42.8061 1.89338C42.7165 1.72903 42.4852 1.57867 42.1125 1.44155C41.7389 1.30472 41.2614 1.28209 40.6792 1.37328L34.2315 1.42775C34.1271 1.38249 33.9779 1.3867 33.7836 1.44155C33.5895 1.4964 33.4925 1.52392 33.4925 1.52392L33.3803 1.59248L33.2912 1.67485C33.2165 1.72931 33.1344 1.82511 33.0448 1.96204C32.9556 2.09849 32.8811 2.25862 32.8215 2.4411C32.1195 4.64951 31.3214 6.70277 30.4256 8.60079C29.8733 9.73256 29.3661 10.7134 28.9029 11.5439C28.4404 12.3741 28.0523 12.9858 27.7391 13.3779C27.4254 13.7703 27.1424 14.0848 26.8881 14.3223C26.6343 14.5599 26.4405 14.6603 26.3064 14.6236C26.1719 14.5868 26.0452 14.5504 25.9253 14.514C25.7165 14.3496 25.5486 14.1261 25.4219 13.8432C25.2947 13.5603 25.2091 13.2043 25.1643 12.7754C25.1198 12.3462 25.0934 11.977 25.0859 11.6666C25.0789 11.3566 25.0821 10.9181 25.0973 10.3524C25.1128 9.78636 25.1198 9.40338 25.1198 9.20259C25.1198 8.50893 25.1308 7.75611 25.153 6.94393C25.1756 6.13175 25.1939 5.48824 25.2092 5.01417C25.2244 4.53962 25.2314 4.03755 25.2314 3.50824C25.2314 2.97894 25.2051 2.56383 25.153 2.26255C25.1016 1.96165 25.0226 1.66958 24.9186 1.38642C24.8139 1.10355 24.6607 0.884728 24.4596 0.729389C24.2581 0.574241 24.0077 0.45112 23.7096 0.359642C22.9185 0.140728 21.9111 0.022306 20.6869 0.00389536C17.9109 -0.0325423 16.1272 0.186659 15.3362 0.661211C15.0227 0.861715 14.7391 1.13567 14.4855 1.48221C14.2168 1.88389 14.1793 2.10309 14.3733 2.13914C15.269 2.30321 15.903 2.69568 16.2762 3.31618L16.4107 3.64498C16.5153 3.88221 16.6197 4.3022 16.7243 4.90438C16.8286 5.50656 16.896 6.1727 16.9256 6.90241C17.0001 8.23497 17.0001 9.37567 16.9256 10.3246C16.8509 11.2739 16.7803 12.0129 16.713 12.5422C16.6456 13.0715 16.5449 13.5004 16.4107 13.8288C16.2762 14.1573 16.1867 14.3581 16.1419 14.431C16.0971 14.5039 16.0598 14.5498 16.0301 14.5678C15.8361 14.6587 15.6344 14.7051 15.4256 14.7051C15.2164 14.7051 14.9628 14.5771 14.6644 14.3215C14.366 14.0659 14.0563 13.7147 13.7354 13.2675C13.4144 12.8202 13.0525 12.1951 12.6493 11.3921C12.2465 10.5891 11.8285 9.64013 11.3957 8.54508L11.0376 7.75093C10.8137 7.24003 10.5079 6.49613 10.1198 5.51989C9.73147 4.54326 9.38825 3.59857 9.08988 2.686C8.97061 2.30273 8.79143 2.01094 8.55265 1.81015L8.44059 1.72778C8.3661 1.65491 8.24651 1.57752 8.08247 1.49506C7.91819 1.41269 7.74677 1.35362 7.56751 1.31728L1.43313 1.37175C0.806271 1.37175 0.380944 1.5454 0.156988 1.89223L0.0673591 2.05629C0.0225837 2.14768 0 2.29362 0 2.49451C0 2.6953 0.0447754 2.94173 0.134405 3.23352C1.02991 5.80717 2.00376 8.28925 3.05594 10.6801C4.10812 13.071 5.02245 14.9969 5.79837 16.4562C6.57446 17.9165 7.36551 19.2947 8.17155 20.5901C8.97758 21.8861 9.51113 22.7166 9.77217 23.0814C10.0335 23.4469 10.2388 23.7202 10.388 23.9027L10.9479 24.5596C11.3061 24.9977 11.8321 25.5224 12.5261 26.1337C13.2203 26.7454 13.9889 27.3476 14.8322 27.9412C15.6756 28.5339 16.6568 29.0176 17.7764 29.3916C18.8958 29.7661 19.9853 29.9164 21.0451 29.8439H23.6198C24.1419 29.7887 24.5375 29.5879 24.8064 29.2414L24.8955 29.1042C24.9554 28.9952 25.0115 28.826 25.0632 28.5983C25.1156 28.3701 25.1417 28.1188 25.1417 27.8454C25.1264 27.0608 25.1752 26.3536 25.2869 25.724C25.3985 25.0946 25.5257 24.62 25.6679 24.3004C25.8101 23.9811 25.9705 23.7117 26.1491 23.4933C26.328 23.2743 26.4555 23.1417 26.5303 23.0961C26.6047 23.0501 26.664 23.019 26.7088 23.0003C27.067 22.8543 27.4886 22.9957 27.9741 23.425C28.4593 23.8539 28.9143 24.3835 29.34 25.0129C29.7654 25.6429 30.2765 26.3497 30.8734 27.1343C31.4707 27.9193 31.9929 28.5028 32.4405 28.8866L32.8881 29.2151C33.187 29.4343 33.5751 29.6351 34.0528 29.8176C34.5297 30 34.9475 30.0456 35.3062 29.9544L41.0374 29.8451C41.6043 29.8451 42.0453 29.7303 42.3582 29.5026C42.6717 29.2745 42.858 29.0231 42.918 28.7498C42.978 28.4761 42.9812 28.1656 42.9294 27.8185C42.8763 27.4722 42.824 27.2301 42.7719 27.0933Z" fill="white"/>
</svg>
