<svg width="35" height="32" viewBox="0 0 35 32" fill="none" xmlns="http://www.w3.org/2000/svg">
<path d="M17.5 0C27.1653 0 35 7.1632 35 16C35 24.8368 27.1653 32 17.5 32C14.4074 32.0045 11.3692 31.2563 8.69752 29.832L0.00702461 32L2.37302 24.0512C0.813937 21.6078 -0.00514216 18.8288 2.42904e-05 16C2.42904e-05 7.1632 7.83477 0 17.5 0ZM11.536 8.47999L11.186 8.49279C10.9594 8.50541 10.738 8.55984 10.535 8.65279C10.3452 8.75108 10.1719 8.87395 10.0205 9.01759C9.81052 9.19839 9.69152 9.35519 9.56377 9.50719C8.91648 10.2766 8.56797 11.2213 8.57327 12.192C8.57677 12.976 8.80077 13.7392 9.15077 14.4528C9.86652 15.896 11.0443 17.424 12.5983 18.84C12.9728 19.1808 13.3403 19.5232 13.7358 19.8416C15.6667 21.3959 17.9677 22.5168 20.4558 23.1152L21.4498 23.2544C21.7735 23.2704 22.0973 23.248 22.4228 23.2336C22.9324 23.2095 23.4301 23.0834 23.8805 22.864C24.1097 22.7561 24.3333 22.6386 24.5508 22.512C24.5508 22.512 24.626 22.4672 24.7695 22.368C25.0058 22.208 25.151 22.0944 25.347 21.9072C25.4923 21.7696 25.6183 21.608 25.7145 21.424C25.851 21.1632 25.9875 20.6656 26.0435 20.2512C26.0855 19.9344 26.0733 19.7616 26.068 19.6544C26.061 19.4832 25.9053 19.3056 25.7355 19.2304L24.717 18.8128C24.717 18.8128 23.1945 18.2064 22.2635 17.8192C22.1661 17.7803 22.0617 17.7581 21.9555 17.7536C21.8358 17.7423 21.7148 17.7547 21.6007 17.7897C21.4866 17.8248 21.382 17.8817 21.294 17.9568C21.2853 17.9536 21.168 18.0448 19.9028 19.4464C19.8301 19.5356 19.7301 19.603 19.6154 19.6401C19.5007 19.6771 19.3766 19.6821 19.2588 19.6544C19.1448 19.6264 19.0331 19.5912 18.9245 19.5488C18.7075 19.4656 18.6323 19.4336 18.4835 19.376C17.4791 18.9753 16.5492 18.4338 15.7273 17.7712C15.5068 17.5952 15.302 17.4032 15.092 17.2176C14.4035 16.6148 13.8035 15.9328 13.307 15.1888L13.2038 15.0368C13.1296 14.9347 13.0696 14.8245 13.0253 14.7088C12.9588 14.4736 13.132 14.2848 13.132 14.2848C13.132 14.2848 13.5573 13.8592 13.755 13.6288C13.9475 13.4048 14.1103 13.1872 14.2153 13.032C14.4218 12.728 14.4865 12.416 14.378 12.1744C13.888 11.08 13.3805 9.99039 12.859 8.90879C12.7558 8.69439 12.4495 8.54079 12.1713 8.51039C12.0768 8.50079 11.9823 8.49119 11.8878 8.48479C11.6528 8.47412 11.4173 8.47626 11.1825 8.49119L11.536 8.47999Z" fill="white"/>
</svg>
